<svg id="Layer_1" data-name="Layer 1" xmlns="http://www.w3.org/2000/svg" viewBox="0 0 108.38 29.42"><defs><style>.cls-1{fill:#166088;}.cls-2{fill:#4a6fa5;}</style></defs><title>careloglogo</title><path class="cls-1" d="M107.52,99.89a7.23,7.23,0,0,1-3.62.73,6.1,6.1,0,0,1-4.47-1.68,5.76,5.76,0,0,1-1.71-4.32,6.37,6.37,0,0,1,1.83-4.82,6.76,6.76,0,0,1,4.9-1.77,6.2,6.2,0,0,1,3.07.57v3.14a4.19,4.19,0,0,0-2.59-.87,3.41,3.41,0,0,0-2.52.93,3.48,3.48,0,0,0-.93,2.57,3.41,3.41,0,0,0,.89,2.51,3.28,3.28,0,0,0,2.45.9,4.92,4.92,0,0,0,2.7-.86Z" transform="translate(-66.34 -78.58)"/><path class="cls-1" d="M119.93,100.33h-3.5V98.6h-.05a3.89,3.89,0,0,1-3.57,2,3.75,3.75,0,0,1-2.75-1,3.54,3.54,0,0,1-1-2.64c0-2.33,1.38-3.68,4.14-4l3.25-.44c0-1.31-.71-2-2.13-2a7.3,7.3,0,0,0-4.08,1.28V89a9.34,9.34,0,0,1,2.12-.7A11.31,11.31,0,0,1,114.8,88q5.13,0,5.13,5.12Zm-3.48-4.88v-.81l-2.18.28c-1.2.16-1.8.7-1.8,1.63a1.35,1.35,0,0,0,.44,1,1.68,1.68,0,0,0,1.19.4,2.21,2.21,0,0,0,1.7-.72A2.62,2.62,0,0,0,116.45,95.45Z" transform="translate(-66.34 -78.58)"/><path class="cls-1" d="M130.69,91.67a3.1,3.1,0,0,0-1.56-.37,2.24,2.24,0,0,0-1.88.89,3.81,3.81,0,0,0-.68,2.41v5.73h-3.71v-12h3.71v2.22h0a3.21,3.21,0,0,1,3.17-2.43,2.26,2.26,0,0,1,.91.14Z" transform="translate(-66.34 -78.58)"/><path class="cls-1" d="M143.1,95.38h-7.83q.19,2.61,3.3,2.61a6.47,6.47,0,0,0,3.48-.93v2.67a9.2,9.2,0,0,1-4.33.89,5.58,5.58,0,0,1-6.11-6.11,6.39,6.39,0,0,1,1.73-4.73A5.81,5.81,0,0,1,137.61,88a5.24,5.24,0,0,1,4.06,1.56,6,6,0,0,1,1.43,4.23Zm-3.43-2.27c0-1.72-.7-2.58-2.09-2.58a2,2,0,0,0-1.54.74,3.32,3.32,0,0,0-.79,1.84Z" transform="translate(-66.34 -78.58)"/><path class="cls-2" d="M145.68,100.33V82.56h1.5v17.77Z" transform="translate(-66.34 -78.58)"/><path class="cls-2" d="M156,100.61a6.11,6.11,0,0,1-2.4-.45,4.93,4.93,0,0,1-1.81-1.26,5.57,5.57,0,0,1-1.15-2,8.35,8.35,0,0,1,0-5.2,5.61,5.61,0,0,1,1.2-2,5.11,5.11,0,0,1,1.88-1.26,6.61,6.61,0,0,1,2.46-.43,6.18,6.18,0,0,1,2.34.42,4.76,4.76,0,0,1,1.77,1.24,5.27,5.27,0,0,1,1.11,2,8.22,8.22,0,0,1,.39,2.63,7.74,7.74,0,0,1-.4,2.57,5.72,5.72,0,0,1-1.16,2,5,5,0,0,1-1.83,1.29A6.05,6.05,0,0,1,156,100.61Zm.11-11.26a4.45,4.45,0,0,0-1.78.34,3.59,3.59,0,0,0-1.36,1,4.52,4.52,0,0,0-.88,1.59,7,7,0,0,0-.3,2.14,6.46,6.46,0,0,0,.3,2,4.54,4.54,0,0,0,.87,1.54,3.7,3.7,0,0,0,1.35,1,4.42,4.42,0,0,0,1.78.35,4.32,4.32,0,0,0,1.78-.34,3.33,3.33,0,0,0,1.31-1,4.22,4.22,0,0,0,.82-1.56,7.55,7.55,0,0,0,.27-2.11,5.6,5.6,0,0,0-1.07-3.71A3.8,3.8,0,0,0,156.07,89.35Z" transform="translate(-66.34 -78.58)"/><path class="cls-2" d="M174.72,99.4a7,7,0,0,1-1.52,4.95,6.12,6.12,0,0,1-4.68,1.61,8.19,8.19,0,0,1-3.73-.88v-1.52a7.67,7.67,0,0,0,3.73,1.09q4.69,0,4.7-5V98.24h-.05a4.56,4.56,0,0,1-4.22,2.37,5,5,0,0,1-2-.41A4.49,4.49,0,0,1,165.34,99a5.73,5.73,0,0,1-1-1.88,8,8,0,0,1-.36-2.5,8.78,8.78,0,0,1,.39-2.69,6.16,6.16,0,0,1,1.1-2.08,4.93,4.93,0,0,1,1.73-1.34,5.22,5.22,0,0,1,2.28-.47,4,4,0,0,1,3.71,2.06h.05V88.33h1.5ZM173.22,93a3.74,3.74,0,0,0-.27-1.42,3.56,3.56,0,0,0-.75-1.17,3.41,3.41,0,0,0-1.14-.8,3.5,3.5,0,0,0-1.46-.3,3.92,3.92,0,0,0-1.7.36,3.65,3.65,0,0,0-1.28,1,5,5,0,0,0-.83,1.62,7.57,7.57,0,0,0-.28,2.15,6.91,6.91,0,0,0,.27,2,4.56,4.56,0,0,0,.76,1.51,3.46,3.46,0,0,0,1.19,1,3.43,3.43,0,0,0,1.55.34A4,4,0,0,0,170.9,99a3.85,3.85,0,0,0,1.24-.89,4.19,4.19,0,0,0,.8-1.34,4.7,4.7,0,0,0,.28-1.66Z" transform="translate(-66.34 -78.58)"/><path class="cls-1" d="M92.08,99.27V80a1.37,1.37,0,0,0-1.38-1.38H71.85a5.51,5.51,0,0,0-5.51,5.51v18.39A5.52,5.52,0,0,0,71.85,108H90.7a1.37,1.37,0,0,0,1.38-1.38v-.92a1.38,1.38,0,0,0-.51-1.07,12.93,12.93,0,0,1,0-4.3,1.34,1.34,0,0,0,.51-1.06Zm-18.39-13a.35.35,0,0,1,.35-.35H86.22a.35.35,0,0,1,.34.35v1.15a.34.34,0,0,1-.34.34H74a.35.35,0,0,1-.35-.34Zm0,3.68a.35.35,0,0,1,.35-.35H86.22a.35.35,0,0,1,.34.35v1.15a.34.34,0,0,1-.34.34H74a.35.35,0,0,1-.35-.34Zm14.56,14.36H71.85a1.84,1.84,0,0,1,0-3.68h16.4A20.56,20.56,0,0,0,88.25,104.32Z" transform="translate(-66.34 -78.58)"/></svg>